<?xml version="1.0" encoding="UTF-8" standalone="no"?>
<svg
   xmlns:dc="http://purl.org/dc/elements/1.1/"
   xmlns:cc="http://creativecommons.org/ns#"
   xmlns:rdf="http://www.w3.org/1999/02/22-rdf-syntax-ns#"
   xmlns:svg="http://www.w3.org/2000/svg"
   xmlns="http://www.w3.org/2000/svg"
   version="1.1"
   id="svg920"
   viewBox="0 0 1073 916"
   width="100%"
   height="100%">
  <metadata
     id="metadata926">
    <rdf:RDF>
      <cc:Work
         rdf:about="">
        <dc:format>image/svg+xml</dc:format>
        <dc:type
           rdf:resource="http://purl.org/dc/dcmitype/StillImage" />
        <dc:title></dc:title>
      </cc:Work>
    </rdf:RDF>
  </metadata>
  <defs
     id="defs924" />
  <path
     id="rect983"
     d="M 595.37109 48.140625 C 592.12667 48.152065 590.4165 48.733718 587.01953 50.455078 C 576.89251 55.586828 576.37497 61.469495 584.43945 79.765625 C 587.54334 86.807525 590.44426 93.037535 590.88672 93.609375 C 591.32919 94.181215 593.23176 98.231235 595.11328 102.60938 C 596.9948 106.98754 599.90017 113.49336 601.57031 117.06836 C 605.91801 126.37479 626.98915 172.42197 630.24023 179.7207 C 635.10728 190.64733 643.41936 189.53982 554.78125 189.77539 C 478.47526 189.97819 454.99721 190.73412 435.79492 193.60938 C 395.32958 199.66846 353.52795 212.95959 320.29492 230.33203 C 309.95218 235.73866 288.675 248.76887 280.19531 254.88867 C 248.67567 277.63645 221.12357 304.43659 200.33789 332.56836 C 197.08687 336.96836 193.18463 342.20032 191.66602 344.19336 C 177.93411 362.21535 155.54175 408.27593 147.48828 435.06836 C 132.17024 486.02869 129.98516 511.0551 132.6875 604.56836 C 133.29147 625.46836 134.46506 667.99336 135.29492 699.06836 C 136.12477 730.14336 137.24975 769.74336 137.79492 787.06836 C 138.34008 804.39336 138.78802 827.71111 138.79102 838.88477 C 138.79402 851.34224 139.20779 859.97028 139.86133 861.19141 C 140.90787 863.14692 141.86391 863.1786 192.82617 862.87695 C 238.01792 862.60946 244.9253 862.36844 246.26953 861.02344 C 247.64353 859.64865 247.70583 854.97551 246.82617 818.52344 C 244.84838 736.56559 243.75245 693.87861 242.77539 660.56836 C 240.65414 588.24971 239.70096 537.1777 240.30273 528.06836 C 244.1986 469.09374 271.20414 410.09327 313.26562 368.65625 C 322.2 359.85452 339.35945 345.84077 344.17383 343.41406 C 345.89118 342.54843 348.41992 340.82021 349.79492 339.57227 C 354.80999 335.02063 376.19832 322.94466 388.29492 317.83594 C 401.57508 312.22737 423.67023 305.19719 437.46289 302.19141 C 462.21615 296.79703 466.2767 296.60424 554.96289 296.58594 C 599.87958 296.57694 636.91148 296.85091 637.25586 297.19531 C 637.60023 297.53972 637.20493 299.33972 636.37891 301.19531 C 635.06021 304.15771 625.20611 328.7491 615.79297 352.56836 C 614.05414 356.96836 611.11568 364.16836 609.26172 368.56836 C 597.21424 397.16053 590.4379 415.85931 590.05664 421.56836 C 589.68391 427.14967 589.88199 427.83882 592.9043 431.44727 C 597.171 436.54144 602.7935 439.01927 610.15039 439.04688 C 616.82832 439.07188 616.45523 439.23808 643.79492 424.06836 C 667.51251 410.90839 669.71689 409.70019 685.29492 401.33984 C 692.44492 397.5026 702.11992 392.20405 706.79492 389.56445 C 711.46992 386.92486 726.31992 378.71617 739.79492 371.32227 C 753.26992 363.92837 765.87638 356.86135 767.80859 355.61719 C 769.74081 354.37302 772.44081 353.01233 773.80859 352.5957 C 775.17638 352.17908 777.19492 351.06321 778.29492 350.11523 C 779.39492 349.16725 782.09493 347.51127 784.29492 346.43555 C 786.49492 345.35983 793.46992 341.61178 799.79492 338.10547 C 806.11992 334.59917 813.54492 330.53426 816.29492 329.07227 C 819.04492 327.61029 845.59492 312.91512 875.29492 296.41797 C 904.99485 279.92081 932.83682 264.48232 937.16602 262.10938 C 951.96531 253.99739 955.72887 248.41729 952.35547 239.58398 C 951.35607 236.9672 949.21481 233.96553 947.31641 232.51758 C 940.95292 227.66389 905.54657 209.06836 902.66797 209.06836 C 901.60347 209.06836 900.47732 208.40501 900.16602 207.59375 C 899.66352 206.28421 890.26142 200.94475 861.79492 185.80273 C 857.11992 183.31599 842.79494 175.60923 829.96094 168.67578 C 817.12694 161.74233 806.42338 156.06836 806.17578 156.06836 C 805.92818 156.06836 802.24739 154.09582 797.99609 151.68359 C 793.74489 149.27136 786.89842 145.53711 782.78125 143.38672 C 771.17103 137.32278 740.17608 120.79013 720.29492 110.05469 C 710.39492 104.70888 697.79492 97.962863 692.29492 95.064453 C 686.79492 92.166043 679.29205 88.056141 675.62109 85.931641 C 671.95013 83.807141 668.72824 82.068359 668.46094 82.068359 C 668.19364 82.068359 664.89652 80.333981 661.13477 78.212891 C 657.37303 76.091801 649.34492 71.74927 643.29492 68.5625 C 637.24492 65.37575 631.16992 61.990296 629.79492 61.041016 C 628.41992 60.091736 622.56992 56.942556 616.79492 54.041016 C 607.8441 49.543846 605.25521 48.696478 599.24609 48.298828 C 597.70454 48.196818 596.45256 48.136625 595.37109 48.140625 z "
     style="opacity:1;fill:#ffffff;fill-opacity:0.98870057;stroke:none;stroke-width:3.99999976;stroke-linecap:square;stroke-linejoin:round;stroke-miterlimit:4;stroke-dasharray:15.99999905, 3.99999976000000013;stroke-dashoffset:0;stroke-opacity:1;paint-order:markers stroke fill" />
</svg>
